<?xml version="1.0" encoding="utf-8"?>
<!-- Generator: Adobe Illustrator 24.2.1, SVG Export Plug-In . SVG Version: 6.00 Build 0)  -->
<svg version="1.1" id="Layer_1" xmlns="http://www.w3.org/2000/svg" xmlns:xlink="http://www.w3.org/1999/xlink" x="0px" y="0px"
	 viewBox="0 0 320 96.4" style="enable-background:new 0 0 320 96.4;" xml:space="preserve">
<style type="text/css">
	.st0{fill-rule:evenodd;clip-rule:evenodd;fill:#111111;}
	.st1{fill:#111111;}
</style>
<g id="SvgjsG1042" transform="matrix(1.1901391479979508,0,0,1.1901391479979508,-9.520718202195445,-10.710857350193397)">
	<g>
		<path class="st0" d="M20,60c0-8.3,6.7-15,15-15h30c8.3,0,15,6.7,15,15c0,8.3-6.7,15-15,15H35C26.7,75,20,68.3,20,60z M35,66
			c-3.3,0-6-2.7-6-6s2.7-6,6-6c3.3,0,6,2.7,6,6S38.3,66,35,66z M65,66c-3.3,0-6-2.7-6-6s2.7-6,6-6c3.3,0,6,2.7,6,6S68.3,66,65,66z"
			/>
		<path class="st0" d="M65,62L65,62c1.1,0,2-0.9,2-2s-0.9-2-2-2c-1.1,0-2,0.9-2,2S63.9,62,65,62L65,62z M35,62L35,62
			c1.1,0,2-0.9,2-2s-0.9-2-2-2s-2,0.9-2,2S33.9,62,35,62L35,62z"/>
		<path class="st0" d="M81.1,30.3C90,39,90,50,90,50v20c0,0,0,20-40,20S10,70,10,70V50c0,0,0-11,8.9-19.7L8.3,12C7.7,11,8,9.8,9,9.3
			c1-0.6,2.2-0.2,2.7,0.7L22,27.7c5.9-4.4,14.8-7.7,28-7.7c13.3,0,22.1,3.3,28,7.7L88.3,10c0.6-1,1.8-1.3,2.7-0.7
			c1,0.6,1.3,1.8,0.7,2.7L81.1,30.3z M14,50v20c0,0,0,0.1,0,0.3c0.1,0.5,0.2,1,0.4,1.6c0.6,1.8,1.7,3.6,3.4,5.3
			C23.2,82.6,33.5,86,50,86s26.8-3.4,32.2-8.8c1.7-1.7,2.8-3.5,3.4-5.3c0.2-0.6,0.3-1.1,0.4-1.6c0-0.2,0-0.3,0-0.3V50
			c0-0.1,0-0.4-0.1-0.9c-0.1-0.9-0.2-1.8-0.5-2.9c-0.7-3.1-1.9-6.1-3.8-9C76.2,29,66.2,24,50,24s-26.2,5-31.7,13.2
			c-1.9,2.8-3.1,5.9-3.8,9c-0.2,1.1-0.4,2-0.5,2.9C14,49.6,14,50,14,50z"/>
	</g>
</g>
<g id="SvgjsG1043" transform="matrix(1.3261651828014975,0,0,1.3261651828014975,117.68197879098926,32.24985468256044)">
	<path class="st1" d="M1.7,19.4V4.9h3c2.2,0,3.7,0.2,4.7,0.5C10.9,5.9,12,6.8,12.8,8c0.8,1.2,1.2,2.7,1.2,4.3c0,1.4-0.3,2.7-0.9,3.8
		c-0.6,1.1-1.4,1.9-2.4,2.4c-1,0.5-2.4,0.8-4.2,0.8L1.7,19.4L1.7,19.4z M3.1,18h1.7c2,0,3.4-0.1,4.2-0.4c1.1-0.4,1.9-1,2.6-1.9
		c0.6-0.9,0.9-2,0.9-3.4c0-1.4-0.3-2.6-1-3.6s-1.6-1.7-2.8-2C7.7,6.4,6.2,6.3,4.2,6.3h-1L3.1,18L3.1,18z M16.7,19.4V4.9h3
		c2.2,0,3.7,0.2,4.7,0.5c1.4,0.5,2.5,1.3,3.3,2.6c0.8,1.2,1.2,2.7,1.2,4.3c0,1.4-0.3,2.7-0.9,3.8c-0.6,1.1-1.4,1.9-2.4,2.4
		c-1,0.5-2.4,0.8-4.2,0.8L16.7,19.4L16.7,19.4z M18.1,18h1.7c2,0,3.4-0.1,4.2-0.4c1.1-0.4,1.9-1,2.6-1.9c0.6-0.9,0.9-2,0.9-3.4
		c0-1.4-0.3-2.6-1-3.6c-0.7-1-1.6-1.7-2.8-2c-0.9-0.3-2.4-0.4-4.5-0.4h-1L18.1,18L18.1,18z M37.6,4.9l6.7,14.5h-1.5l-2.3-4.8h-6.3
		l-2.3,4.8h-1.6l6.8-14.5L37.6,4.9L37.6,4.9z M37.5,8L35,13.2h5L37.5,8z M50.9,4.9h1.5V11h7.4V4.9h1.4v14.5h-1.4v-7h-7.4v7h-1.5V4.9
		z M69.5,8.2c1.6,0,3,0.6,4.1,1.8c1,1.1,1.5,2.4,1.5,3.9c0,3.7,0,5.6,0,5.6h-1.5v-2.4c-0.8,1.4-2.1,2.2-4.2,2.4c-1.6,0-3-0.6-4-1.7
		c-1-1.1-1.6-2.4-1.6-3.9c0-1.5,0.5-2.8,1.5-3.9C66.5,8.8,67.8,8.2,69.5,8.2L69.5,8.2z M69.5,9.6c-1.1,0-2.1,0.4-2.9,1.3
		c-0.8,0.8-1.2,1.9-1.2,3.1c0,0.8,0.2,1.5,0.6,2.2c0.4,0.7,1.1,1.3,2.1,1.8c2.5,0.6,4.3-0.6,5.4-3.4c0.1-0.9,0-1.8-0.3-2.6
		c-0.2-0.4-0.4-0.7-0.8-1.1C71.6,10,70.6,9.6,69.5,9.6L69.5,9.6z M77.7,15.4l0-1.1c0-0.6,0-1,0.1-1.4c0.1-1.2,0.5-2.1,0.9-2.7
		c0.5-0.5,0.9-0.9,1.4-1.2c0.8-0.3,1.7-0.5,2.8-0.5c0.8,0,1.6,0.2,2.2,0.6c0.7,0.4,1.2,1,1.5,1.6c0.3,0.7,0.4,1.8,0.4,3.2v5.5h-1.4
		v-5.1c0-1.2-0.1-2.1-0.2-2.5c-0.2-0.7-0.5-1.2-1-1.5c-0.5-0.3-1.2-0.4-2.1-0.4c-0.8,0-1.6,0.2-2.2,0.7c-0.7,0.5-1,1.1-0.9,2
		c-0.1,0.5-0.2,1.5-0.2,2.9v3.9h-1.4L77.7,15.4L77.7,15.4z M99.9,17.4c0.6-1,0.9-1.9,1.1-2.9c0-6.8,0-10.2,0-10.1h-1.4v6
		c-0.6-0.7-1.2-1.2-1.9-1.6c-0.7-0.3-1.5-0.5-2.4-0.5c-1.5,0-2.8,0.6-3.9,1.7s-1.6,2.4-1.6,4c0,1.5,0.5,2.9,1.6,4
		c1.1,1.1,2.4,1.6,3.9,1.6c0.9,0,1.7-0.2,2.5-0.5C98.6,18.6,99.3,18.1,99.9,17.4L99.9,17.4z M95.5,18.1c-0.8,0-1.5-0.2-2.1-0.6
		c-0.6-0.4-1.2-0.9-1.5-1.6c-0.4-0.7-0.6-1.4-0.6-2.2c0-0.8,0.2-1.5,0.6-2.2c0.4-0.7,0.9-1.2,1.6-1.6s1.4-0.6,2.1-0.6
		c0.8,0,1.5,0.2,2.1,0.6s1.2,0.9,1.6,1.6s0.5,1.4,0.5,2.2c0,1.2-0.4,2.3-1.2,3.1C97.7,17.7,96.7,18.1,95.5,18.1L95.5,18.1z
		 M104.7,17.4c-0.6-1-0.9-1.9-1.1-2.9c0-6.8,0-10.2,0-10.1h1.4v6c0.6-0.7,1.2-1.2,1.9-1.6c0.7-0.3,1.5-0.5,2.4-0.5
		c1.5,0,2.8,0.6,3.9,1.7s1.6,2.4,1.6,4c0,1.5-0.5,2.9-1.6,4c-1.1,1.1-2.4,1.6-3.9,1.6c-0.9,0-1.7-0.2-2.5-0.5
		C106,18.6,105.3,18.1,104.7,17.4L104.7,17.4z M109.1,18.1c0.8,0,1.5-0.2,2.1-0.6s1.2-0.9,1.5-1.6c0.4-0.7,0.6-1.4,0.6-2.2
		c0-0.8-0.2-1.5-0.6-2.2c-0.4-0.7-0.9-1.2-1.6-1.6c-0.7-0.4-1.4-0.6-2.1-0.6c-0.8,0-1.5,0.2-2.1,0.6c-0.7,0.4-1.2,0.9-1.6,1.6
		c-0.4,0.7-0.5,1.4-0.5,2.2c0,1.2,0.4,2.3,1.2,3.1C106.9,17.7,107.9,18.1,109.1,18.1L109.1,18.1z M122.6,8.2c1.6,0,3,0.6,4.1,1.8
		c1,1.1,1.5,2.4,1.5,3.9s-0.5,2.8-1.6,3.9s-2.4,1.7-4,1.7c-1.6,0-3-0.6-4-1.7s-1.6-2.4-1.6-3.9c0-1.5,0.5-2.8,1.5-3.9
		C119.6,8.8,120.9,8.2,122.6,8.2L122.6,8.2z M122.6,9.6c-1.1,0-2.1,0.4-2.9,1.3c-0.8,0.8-1.2,1.9-1.2,3.1c0,0.8,0.2,1.5,0.6,2.2
		c0.4,0.7,0.9,1.2,1.5,1.6c0.6,0.4,1.3,0.5,2.1,0.5c0.8,0,1.5-0.2,2.1-0.5s1.1-0.9,1.5-1.6c0.4-0.7,0.6-1.4,0.6-2.2
		c0-1.2-0.4-2.2-1.2-3.1C124.7,10,123.7,9.6,122.6,9.6L122.6,9.6z M135.8,8.2c1.6,0,3,0.6,4.1,1.8c1,1.1,1.5,2.4,1.5,3.9
		s-0.5,2.8-1.6,3.9s-2.4,1.7-4,1.7c-1.6,0-3-0.6-4-1.7s-1.6-2.4-1.6-3.9c0-1.5,0.5-2.8,1.5-3.9C132.7,8.8,134.1,8.2,135.8,8.2
		L135.8,8.2z M135.8,9.6c-1.1,0-2.1,0.4-2.9,1.3c-0.8,0.8-1.2,1.9-1.2,3.1c0,0.8,0.2,1.5,0.6,2.2c0.4,0.7,0.9,1.2,1.5,1.6
		c0.6,0.4,1.3,0.5,2.1,0.5c0.8,0,1.5-0.2,2.1-0.5s1.1-0.9,1.5-1.6c0.4-0.7,0.6-1.4,0.6-2.2c0-1.2-0.4-2.2-1.2-3.1
		C137.9,10,136.9,9.6,135.8,9.6L135.8,9.6z M143.8,4.6h1.4V13l5-4.3h2l-4.5,4.1l4.8,6.6h-2l-4.2-5.8l-1.2,0.9v4.8h-1.4L143.8,4.6
		L143.8,4.6z"/>
</g>
</svg>
